<svg xmlns="http://www.w3.org/2000/svg" width="146.3" height="40.4"><g fill="#283645"><path d="M71.9 18.7c0-.7.6-1.3 1.2-1.3h7.2c5.1 0 8.4 2.7 8.4 7.1 0 5-4 7.5-8.8 7.5h-5.5v6.8c0 .7-.6 1.3-1.3 1.3-.6 0-1.2-.6-1.2-1.3V18.7zm8 11c3.8 0 6.3-2 6.3-5 0-3.3-2.4-5-6-5h-5.8v10H80zM93.6 18.5c0-.7.6-1.3 1.3-1.3.7 0 1.2.6 1.2 1.3v20.3c0 .7-.5 1.3-1.2 1.3s-1.3-.6-1.3-1.3V18.5zM102.7 18.5c0-.6.6-1.2 1.3-1.2h.4c.5 0 .9.3 1.2.7l13.7 17.5v-17c0-.7.6-1.3 1.3-1.3.7 0 1.2.6 1.2 1.3v20.3c0 .7-.5 1.2-1.2 1.2-.6 0-1-.3-1.4-.8l-14-17.8v17.4c0 .7-.5 1.3-1.2 1.3s-1.3-.6-1.3-1.3V18.5zM128.2 18.5c0-.7.6-1.3 1.2-1.3.7 0 1.3.6 1.3 1.3v12.3l12.9-13.1c.3-.3.5-.5 1-.5.6 0 1.2.6 1.2 1.3 0 .3-.2.6-.4.9l-8 7.9 8.5 10.6c.3.2.4.5.4.9 0 .7-.6 1.3-1.3 1.3-.5 0-.8-.3-1-.6L135.6 29l-4.9 4.9v4.9c0 .7-.6 1.3-1.3 1.3-.6 0-1.2-.6-1.2-1.3V18.5z"/></g><path fill="#D22856" d="M60.5 28L55.3 6.7C54.9 4.3 52.7 0 46.7 0a1.5 1.5 0 1 0 0 3c4.8 0 5.6 3.7 5.6 4.1l4.8 19.7h-2a12 12 0 0 0-24 0h-1.8a12 12 0 0 0-23.8 0h-2L8.1 7.1c0-.4.8-4.1 5.6-4.1a1.5 1.5 0 1 0 0-3c-6 0-8.2 4.3-8.6 6.7L.1 28c-.3 1.1.5 1.8 1.4 1.8h4a12 12 0 0 0 23.9 0h1.8a12 12 0 0 0 23.8 0h4c1 0 1.7-.7 1.5-1.8zm-34.2 1.8a9 9 0 1 1-17.8-3 9 9 0 0 1 17.8 3zm25.7 0a9 9 0 1 1-17.8-3 9 9 0 0 1 17.8 3z"/></svg>