<svg version="1" xmlns="http://www.w3.org/2000/svg" width="74.4" height="22.9"><path d="M0 1.4C0 .7.6.2 1.3.2h7.1C13.5.2 17 2.9 17 7.3c0 5-4 7.4-8.9 7.4H2.5v6.9c0 .7-.5 1.3-1.2 1.3S0 22.3 0 21.6V1.4zm8.1 11c3.7 0 6.2-2 6.2-5 0-3.2-2.4-4.9-6-4.9H2.4v10H8zM21.7 1.3c0-.7.6-1.3 1.3-1.3.7 0 1.3.6 1.3 1.3v20.3c0 .7-.6 1.3-1.3 1.3-.7 0-1.3-.6-1.3-1.3V1.3zm9.2 0c0-.7.5-1.2 1.2-1.2h.4c.6 0 1 .3 1.3.7l13.7 17.5v-17c0-.7.5-1.3 1.2-1.3S50 .6 50 1.3v20.3c0 .7-.5 1.2-1.1 1.2h-.2c-.5 0-.9-.3-1.3-.8l-14-17.8v17.4c0 .7-.5 1.3-1.2 1.3s-1.2-.6-1.2-1.3V1.3zm25.4 0c0-.7.6-1.3 1.3-1.3.7 0 1.2.6 1.2 1.3v12.3L71.7.5c.3-.3.6-.5 1-.5.7 0 1.2.6 1.2 1.3 0 .3-.1.6-.4.9l-8 7.9 8.6 10.5c.2.3.3.6.3 1 0 .6-.6 1.3-1.3 1.3-.4 0-.8-.3-1-.6l-8.4-10.5-4.9 4.9v4.9c0 .7-.5 1.3-1.2 1.3s-1.3-.6-1.3-1.3V1.3z" fill="#FFF"/></svg>