<svg xmlns="http://www.w3.org/2000/svg"><symbol id="logo-htmlacademy"><path d="M13.6 0h-.1L0 1.4v24.7l13.5 8 13.4-8V1.4L13.6 0zM25 12.1L13.5 5.3h-.2L2 12.1v-9L13.5 2 25 3.1v9zM13.4 6.8L25 13.5l-4.5 2.6-7-4.2v1.4l5.8 3.5-.8.6-5-3v1.4l3.8 2.3-.8.5-3-1.8v1.4l1.8 1-1.8 1.2L2 13.6l11.4-6.8zM1.9 15l11.4 7v1l-7.9-4.7v1.4l8 4.8v1.1l-8-4.7v1.4l8 4.8 8.2-4.8V17l3.4-2v10l-11.5 6.9-11.6-7v-9.8z"/></symbol><symbol id="icon-review-arrow-left"><path d="M2 20.9L21.5 1.4A.8.8 0 0 0 20.3.2l-20 20c-.4.4-.4 1 0 1.3l20 20a.8.8 0 0 0 1.2 0c.3-.4.3-.9 0-1.2L2 20.9z"/></symbol><symbol id="icon-review-arrow-right"><path d="M19.7 20.9L.2 1.4A.8.8 0 0 1 1.4.2l20 20c.4.4.4 1 0 1.3l-20 20a.8.8 0 0 1-1.2 0 .8.8 0 0 1 0-1.2l19.5-19.4z"/></symbol><symbol id="icon-editor-contrast" viewBox="-35.4 -8 31.9 31.9"><path fill="#231F20" d="M-19.5-4a12 12 0 1 1 0 24 12 12 0 0 1 0-24m0-4a16 16 0 1 0 0 32 16 16 0 0 0 0-32z"/><path d="M-19.5 16.3a8.5 8.5 0 1 0 0-17"/></symbol><symbol id="icon-editor-fill"><path fill="none" d="M0 0h48v48H0V0z"/><path d="M33.1 17.9L15.2 0l-2.8 2.8 4.8 4.8L6.9 17.9a3 3 0 0 0 0 4.2l11 11c.6.6 1.3.9 2.1.9s1.5-.3 2.1-.9l11-11a3 3 0 0 0 0-4.2zM10.4 20l9.6-9.6 9.6 9.6H10.4zM38 23s-4 4.3-4 7a4 4 0 1 0 8 0c0-2.7-4-7-4-7zM0 40h48v3H0z"/></symbol><symbol id="icon-editor-crop"><path fill="none" d="M0 0h48v48H0V0z"/><path d="M34 30h4V14a4 4 0 0 0-4-4H18v4h16v16zm-20 4V2h-4v8H2v4h8v20a4 4 0 0 0 4 4h20v8h4v-8h8v-4H14z"/></symbol></svg>